<svg width="118" height="89" viewBox="0 0 118 89" fill="none" xmlns="http://www.w3.org/2000/svg">
<g clip-path="url(#clip0_381_145)">
<path d="M112.904 82.6269H24.0889C22.7379 82.6253 21.4426 82.0844 20.4873 81.1227C19.532 80.1611 18.9947 78.8573 18.9932 77.4973V29.7772C18.9947 28.4173 19.532 27.1134 20.4873 26.1518C21.4426 25.1902 22.7379 24.6492 24.0889 24.6477H112.904C114.255 24.6492 115.551 25.1902 116.506 26.1518C117.461 27.1134 117.999 28.4173 118 29.7772V77.4973C117.999 78.8573 117.461 80.1611 116.506 81.1227C115.551 82.0844 114.255 82.6253 112.904 82.6269Z" fill="white"/>
<path d="M112.904 82.6269H24.0889C22.7379 82.6253 21.4426 82.0844 20.4873 81.1227C19.532 80.1611 18.9947 78.8573 18.9932 77.4973V29.7772C18.9947 28.4173 19.532 27.1134 20.4873 26.1518C21.4426 25.1902 22.7379 24.6492 24.0889 24.6477H112.904C114.255 24.6492 115.551 25.1902 116.506 26.1518C117.461 27.1134 117.999 28.4173 118 29.7772V77.4973C117.999 78.8573 117.461 80.1611 116.506 81.1227C115.551 82.0844 114.255 82.6253 112.904 82.6269ZM24.0889 24.9586C22.8198 24.96 21.603 25.4682 20.7056 26.3715C19.8082 27.2749 19.3034 28.4997 19.302 29.7772V77.4973C19.3034 78.7749 19.8082 79.9997 20.7056 80.903C21.603 81.8064 22.8198 82.3145 24.0889 82.316H112.904C114.174 82.3145 115.39 81.8064 116.288 80.903C117.185 79.9997 117.69 78.7749 117.691 77.4973V29.7772C117.69 28.4997 117.185 27.2749 116.288 26.3715C115.39 25.4682 114.174 24.96 112.904 24.9586H24.0889Z" fill="#F2F2F2"/>
<path d="M112.904 78.8964H24.0887C23.7203 78.896 23.367 78.7485 23.1065 78.4862C22.8459 78.224 22.6994 77.8684 22.699 77.4975V29.7774C22.6994 29.4065 22.8459 29.0509 23.1065 28.7886C23.367 28.5264 23.7203 28.3788 24.0887 28.3784H112.904C113.273 28.3788 113.626 28.5264 113.886 28.7886C114.147 29.0509 114.294 29.4065 114.294 29.7774V77.4975C114.294 77.8684 114.147 78.224 113.886 78.4862C113.626 78.7485 113.273 78.896 112.904 78.8964ZM24.0887 28.6893C23.8021 28.6896 23.5274 28.8044 23.3248 29.0083C23.1221 29.2123 23.0081 29.4889 23.0078 29.7774V77.4975C23.0081 77.7859 23.1221 78.0625 23.3248 78.2665C23.5274 78.4705 23.8021 78.5852 24.0887 78.5856H112.904C113.191 78.5852 113.466 78.4705 113.668 78.2665C113.871 78.0625 113.985 77.7859 113.985 77.4975V29.7774C113.985 29.4889 113.871 29.2123 113.668 29.0083C113.466 28.8044 113.191 28.6896 112.904 28.6893H24.0887Z" fill="#F2F2F2"/>
<path d="M90.2998 79.1238L4.4494 56.2155C3.1439 55.8655 2.0296 55.0086 1.35097 53.8326C0.672342 52.6567 0.484801 51.2578 0.829497 49.9428L12.9763 3.81585C13.3239 2.50169 14.1752 1.37999 15.3434 0.696859C16.5116 0.0137264 17.9013 -0.175057 19.2076 0.171927L105.058 23.0803C106.364 23.4302 107.478 24.2872 108.156 25.4631C108.835 26.6391 109.023 28.038 108.678 29.3529L96.5311 75.4799C96.1835 76.7941 95.3322 77.9158 94.164 78.5989C92.9958 79.282 91.6061 79.4708 90.2998 79.1238Z" fill="#F2F2F2"/>
<path d="M90.2998 79.1238L4.4494 56.2155C3.1439 55.8655 2.0296 55.0086 1.35097 53.8326C0.672342 52.6567 0.484801 51.2578 0.829497 49.9428L12.9763 3.81585C13.3239 2.50169 14.1752 1.37999 15.3434 0.696859C16.5116 0.0137264 17.9013 -0.175057 19.2076 0.171927L105.058 23.0803C106.364 23.4302 107.478 24.2872 108.156 25.4631C108.835 26.6391 109.023 28.038 108.678 29.3529L96.5311 75.4799C96.1835 76.7941 95.3322 77.9158 94.164 78.5989C92.9958 79.282 91.6061 79.4708 90.2998 79.1238ZM19.1284 0.472428C17.9013 0.14648 16.5959 0.323824 15.4985 0.965554C14.4011 1.60728 13.6014 2.66099 13.2748 3.89551L1.12802 50.0225C0.804222 51.2577 0.980398 52.5719 1.6179 53.6765C2.2554 54.7812 3.30216 55.5862 4.52854 55.915L90.379 78.8233C91.6061 79.1493 92.9115 78.9719 94.0089 78.3302C95.1063 77.6885 95.906 76.6348 96.2326 75.4002L108.379 29.2733C108.703 28.038 108.527 26.7239 107.89 25.6192C107.252 24.5146 106.205 23.7095 104.979 23.3808L19.1284 0.472428Z" fill="#E6E6E6"/>
<path d="M91.2492 75.5177L5.39877 52.6093C5.04273 52.5138 4.73883 52.2801 4.55375 51.9594C4.36867 51.6387 4.31752 51.2572 4.41152 50.8986L16.5583 4.7716C16.6531 4.41319 16.8853 4.10728 17.2039 3.92097C17.5225 3.73466 17.9015 3.68317 18.2578 3.7778L104.108 26.6862C104.464 26.7816 104.768 27.0153 104.953 27.336C105.138 27.6567 105.189 28.0383 105.095 28.3969L92.9486 74.5239C92.8538 74.8823 92.6217 75.1882 92.3031 75.3745C91.9845 75.5608 91.6055 75.6123 91.2492 75.5177ZM18.1786 4.0783C17.9015 4.0047 17.6068 4.04474 17.359 4.18965C17.1112 4.33455 16.9306 4.57249 16.8568 4.85125L4.71004 50.9782C4.63693 51.2572 4.67671 51.5539 4.82066 51.8033C4.96461 52.0528 5.20098 52.2346 5.4779 52.3088L91.3283 75.2172C91.6054 75.2908 91.9002 75.2507 92.148 75.1058C92.3958 74.9609 92.5764 74.723 92.6501 74.4442L104.797 28.3172C104.87 28.0383 104.83 27.7416 104.686 27.4921C104.542 27.2427 104.306 27.0609 104.029 26.9867L18.1786 4.0783Z" fill="white"/>
<path d="M93.9112 88.9999H5.09571C3.74471 88.9984 2.44948 88.4574 1.49418 87.4958C0.538884 86.5342 0.00152608 85.2303 0 83.8704V36.1503C0.00152608 34.7903 0.538884 33.4865 1.49418 32.5249C2.44948 31.5632 3.74471 31.0223 5.09571 31.0208H93.9112C95.2622 31.0223 96.5574 31.5632 97.5127 32.5249C98.468 33.4865 99.0054 34.7903 99.0069 36.1503V83.8704C99.0054 85.2303 98.468 86.5342 97.5127 87.4958C96.5574 88.4574 95.2622 88.9984 93.9112 88.9999Z" fill="white"/>
<path d="M69.781 84.9585H12.4265C12.3547 84.9588 12.2829 84.9569 12.2122 84.9529L39.3382 69.5747C39.8547 69.2759 41.0135 69.1707 41.9265 69.3397C42.1768 69.3785 42.4192 69.4578 42.6443 69.5747L60.8493 79.8947L61.7215 80.3885L69.781 84.9585Z" fill="#E6E6E6"/>
<path d="M87.8757 84.9586H38.2688L47.8816 80.3886L48.5734 80.0594L61.0998 74.1038C61.9211 73.7135 63.8967 73.6892 64.8622 74.0302C64.9271 74.0534 64.9872 74.078 65.0426 74.1038L87.8757 84.9586Z" fill="#E6E6E6"/>
<path d="M5.09571 31.3318C3.8266 31.3332 2.60987 31.8414 1.71247 32.7447C0.815069 33.6481 0.310277 34.8729 0.308838 36.1504V83.8705C0.310277 85.1481 0.815069 86.3729 1.71247 87.2762C2.60987 88.1796 3.8266 88.6877 5.09571 88.6892H93.9112C95.1803 88.6877 96.3971 88.1796 97.2945 87.2762C98.1919 86.3729 98.6966 85.1481 98.6981 83.8705V36.1504C98.6966 34.8729 98.1919 33.6481 97.2945 32.7447C96.3971 31.8414 95.1803 31.3332 93.9112 31.3318H5.09571Z" fill="#3F3D56"/>
<path d="M93.9113 85.2695H5.09579C4.72734 85.2691 4.3741 85.1215 4.11356 84.8593C3.85303 84.597 3.70648 84.2414 3.70605 83.8705V36.1504C3.70648 35.7795 3.85303 35.4239 4.11356 35.1617C4.3741 34.8994 4.72734 34.7519 5.09579 34.7515H93.9113C94.2797 34.7519 94.633 34.8994 94.8935 35.1617C95.1541 35.4239 95.3006 35.7795 95.301 36.1504V83.8705C95.3006 84.2414 95.1541 84.597 94.8935 84.8593C94.633 85.1215 94.2797 85.2691 93.9113 85.2695ZM5.09579 35.0623C4.80922 35.0627 4.53447 35.1774 4.33183 35.3814C4.12919 35.5854 4.01521 35.8619 4.01489 36.1504V83.8705C4.01521 84.159 4.12919 84.4356 4.33183 84.6396C4.53447 84.8435 4.80922 84.9583 5.09579 84.9586H93.9113C94.1979 84.9583 94.4726 84.8435 94.6753 84.6396C94.8779 84.4356 94.9919 84.159 94.9922 83.8705V36.1504C94.9919 35.8619 94.8779 35.5854 94.6753 35.3814C94.4726 35.1774 94.1979 35.0627 93.9113 35.0623H5.09579Z" fill="#CCCCCC"/>
<path d="M74.122 43.4861C79.4012 43.4861 83.6808 39.1781 83.6808 33.8639C83.6808 28.5497 79.4012 24.2417 74.122 24.2417C68.8428 24.2417 64.5632 28.5497 64.5632 33.8639C64.5632 39.1781 68.8428 43.4861 74.122 43.4861Z" fill="#DFDFDF"/>
<path d="M78.1181 68.8966C84.8044 68.8966 90.2248 62.067 90.2248 53.6422C90.2248 45.2173 84.8044 38.3877 78.1181 38.3877C71.4318 38.3877 66.0115 45.2173 66.0115 53.6422C66.0115 62.067 71.4318 68.8966 78.1181 68.8966Z" fill="#F2F2F2"/>
<path d="M78.1516 50.5747H78.1847L78.7834 85.1267H77.5195L78.1516 50.5747Z" fill="#CCCCCC"/>
<path d="M80.2164 73.4493C80.2534 73.52 80.261 73.6026 80.2374 73.6789C80.2139 73.7553 80.1612 73.8191 80.091 73.8563L78.3546 74.7765L78.0757 74.2433L79.8121 73.323C79.8823 73.2858 79.9644 73.2782 80.0402 73.3019C80.116 73.3255 80.1794 73.3786 80.2164 73.4493Z" fill="#CCCCCC"/>
<path d="M43.312 68.8966C49.9983 68.8966 55.4186 62.067 55.4186 53.6422C55.4186 45.2173 49.9983 38.3877 43.312 38.3877C36.6257 38.3877 31.2053 45.2173 31.2053 53.6422C31.2053 62.067 36.6257 68.8966 43.312 68.8966Z" fill="#F2F2F2"/>
<path d="M45.41 74.0205C45.373 73.9498 45.3096 73.8968 45.2338 73.8731C45.158 73.8494 45.0759 73.857 45.0056 73.8943L43.7934 74.5367L43.3783 50.5747H43.345L42.7131 85.1268H43.977L43.8052 75.2116L45.2846 74.4275C45.3548 74.3903 45.4075 74.3265 45.431 74.2502C45.4545 74.1739 45.447 74.0913 45.41 74.0205Z" fill="#CCCCCC"/>
<path d="M60.6729 18.4875C69.1452 18.4875 76.0314 34.5573 76.0314 45.2324C76.0314 55.9076 69.1633 64.5615 60.691 64.5615C52.2187 64.5615 45.3506 55.9076 45.3506 45.2324C45.3506 34.5573 52.2006 18.4875 60.6729 18.4875Z" fill="#CACACA"/>
<path d="M63.3495 70.8985C63.3263 70.8542 63.2947 70.8148 63.2564 70.7828C63.2181 70.7508 63.1739 70.7266 63.1263 70.7118C63.0787 70.6969 63.0287 70.6916 62.9791 70.6962C62.9295 70.7008 62.8813 70.7152 62.8373 70.7386L61.3012 71.5526L60.7752 41.1902H60.7331L59.9324 84.9714H61.5338L61.3161 72.4077L63.1907 71.4143C63.2347 71.3909 63.2738 71.359 63.3056 71.3205C63.3375 71.2819 63.3615 71.2374 63.3762 71.1895C63.391 71.1416 63.3962 71.0913 63.3916 71.0414C63.387 70.9914 63.3727 70.9429 63.3495 70.8985Z" fill="#3F3D56"/>
<path d="M94.2201 88.6891H5.40454C4.05355 88.6876 2.75832 88.1466 1.80302 87.185C0.847722 86.2234 0.310364 84.9195 0.308838 83.5596V35.8395C0.310364 34.4795 0.847722 33.1757 1.80302 32.2141C2.75832 31.2524 4.05355 30.7115 5.40454 30.71H94.2201C95.5711 30.7115 96.8663 31.2524 97.8216 32.2141C98.7769 33.1757 99.3142 34.4795 99.3158 35.8395V83.5596C99.3142 84.9195 98.7769 86.2234 97.8216 87.185C96.8663 88.1466 95.5711 88.6876 94.2201 88.6891Z" fill="white"/>
<path d="M70.0898 84.6477H12.7353C12.6635 84.648 12.5918 84.6461 12.521 84.6421L39.647 69.2639C40.1635 68.9651 41.3224 68.8599 42.2353 69.0289C42.4857 69.0677 42.7281 69.147 42.9532 69.2639L61.1581 79.5839L62.0303 80.0777L70.0898 84.6477Z" fill="#E6E6E6"/>
<path d="M88.1846 84.6476H38.5776L48.1905 80.0776L48.8823 79.7483L61.4087 73.7928C62.2299 73.4024 64.2055 73.3781 65.171 73.7191C65.2359 73.7424 65.296 73.7669 65.3514 73.7928L88.1846 84.6476Z" fill="#E6E6E6"/>
<path d="M94.2201 88.6891H5.40454C4.05355 88.6876 2.75832 88.1466 1.80302 87.185C0.847722 86.2234 0.310364 84.9195 0.308838 83.5596V35.8395C0.310364 34.4795 0.847722 33.1757 1.80302 32.2141C2.75832 31.2524 4.05355 30.7115 5.40454 30.71H94.2201C95.5711 30.7115 96.8663 31.2524 97.8216 32.2141C98.7769 33.1757 99.3142 34.4795 99.3158 35.8395V83.5596C99.3142 84.9195 98.7769 86.2234 97.8216 87.185C96.8663 88.1466 95.5711 88.6876 94.2201 88.6891ZM5.40454 31.0208C4.13543 31.0223 2.9187 31.5304 2.0213 32.4338C1.1239 33.3371 0.619108 34.5619 0.617669 35.8395V83.5596C0.619108 84.8371 1.1239 86.0619 2.0213 86.9653C2.9187 87.8686 4.13543 88.3768 5.40454 88.3782H94.2201C95.4892 88.3768 96.7059 87.8686 97.6033 86.9653C98.5007 86.0619 99.0055 84.8371 99.0069 83.5596V35.8395C99.0055 34.5619 98.5007 33.3371 97.6033 32.4338C96.7059 31.5304 95.4892 31.0223 94.2201 31.0208H5.40454Z" fill="#3F3D56"/>
<path d="M94.2201 84.9584H5.40463C5.03618 84.958 4.68294 84.8105 4.4224 84.5482C4.16187 84.286 4.01531 83.9304 4.01489 83.5595V35.8394C4.01531 35.4685 4.16187 35.1129 4.4224 34.8506C4.68294 34.5884 5.03618 34.4409 5.40463 34.4404H94.2201C94.5886 34.4409 94.9418 34.5884 95.2024 34.8506C95.4629 35.1129 95.6095 35.4685 95.6099 35.8394V83.5595C95.6095 83.9304 95.4629 84.286 95.2024 84.5482C94.9418 84.8105 94.5886 84.958 94.2201 84.9584ZM5.40463 34.7513C5.11805 34.7516 4.84331 34.8664 4.64067 35.0704C4.43803 35.2743 4.32404 35.5509 4.32372 35.8394V83.5595C4.32404 83.848 4.43803 84.1245 4.64067 84.3285C4.84331 84.5325 5.11805 84.6472 5.40463 84.6476H94.2201C94.5067 84.6472 94.7815 84.5325 94.9841 84.3285C95.1867 84.1245 95.3007 83.848 95.301 83.5595V35.8394C95.3007 35.5509 95.1867 35.2743 94.9841 35.0704C94.7815 34.8664 94.5067 34.7516 94.2201 34.7513H5.40463Z" fill="#CCCCCC"/>
<path d="M74.4309 43.1754C79.71 43.1754 83.9896 38.8673 83.9896 33.5531C83.9896 28.2389 79.71 23.9309 74.4309 23.9309C69.1517 23.9309 64.8721 28.2389 64.8721 33.5531C64.8721 38.8673 69.1517 43.1754 74.4309 43.1754Z" fill="#DFDFDF"/>
<path d="M78.427 68.5858C85.1133 68.5858 90.5336 61.7562 90.5336 53.3314C90.5336 44.9066 85.1133 38.0769 78.427 38.0769C71.7406 38.0769 66.3203 44.9066 66.3203 53.3314C66.3203 61.7562 71.7406 68.5858 78.427 68.5858Z" fill="#F2F2F2"/>
<path d="M78.4604 50.2639H78.4936L79.0923 84.8159H77.8284L78.4604 50.2639Z" fill="#CCCCCC"/>
<path d="M80.5252 73.1385C80.5622 73.2092 80.5698 73.2918 80.5463 73.3681C80.5227 73.4445 80.4701 73.5083 80.3998 73.5455L78.6634 74.4657L78.3845 73.9325L80.1209 73.0122C80.1912 72.975 80.2732 72.9674 80.3491 72.9911C80.4249 73.0147 80.4883 73.0678 80.5252 73.1385Z" fill="#CCCCCC"/>
<path d="M43.6208 68.5858C50.3071 68.5858 55.7275 61.7562 55.7275 53.3314C55.7275 44.9066 50.3071 38.0769 43.6208 38.0769C36.9345 38.0769 31.5142 44.9066 31.5142 53.3314C31.5142 61.7562 36.9345 68.5858 43.6208 68.5858Z" fill="#F2F2F2"/>
<path d="M45.7188 73.7097C45.6819 73.639 45.6185 73.586 45.5426 73.5623C45.4668 73.5386 45.3847 73.5462 45.3145 73.5835L44.1023 74.2259L43.6871 50.2639H43.6538L43.022 84.816H44.2858L44.114 74.9008L45.5934 74.1167C45.6637 74.0795 45.7163 74.0157 45.7398 73.9394C45.7633 73.8631 45.7558 73.7805 45.7188 73.7097Z" fill="#CCCCCC"/>
<path d="M60.9817 18.1768C69.454 18.1768 76.3403 34.2465 76.3403 44.9216C76.3403 55.5968 69.4721 64.2507 60.9998 64.2507C52.5276 64.2507 45.6594 55.5968 45.6594 44.9217C45.6594 34.2465 52.5095 18.1768 60.9817 18.1768Z" fill="#CACACA"/>
<path d="M63.6584 70.5878C63.6352 70.5434 63.6035 70.5041 63.5652 70.472C63.5269 70.44 63.4827 70.4158 63.4352 70.401C63.3876 70.3861 63.3376 70.3808 63.288 70.3854C63.2384 70.39 63.1902 70.4044 63.1461 70.4278L61.6101 71.2418L61.084 40.8794H61.0419L60.2412 84.6606H61.8426L61.6249 72.0969L63.4995 71.1035C63.5436 71.0801 63.5826 71.0483 63.6145 71.0097C63.6463 70.9711 63.6703 70.9266 63.6851 70.8787C63.6998 70.8309 63.705 70.7805 63.7005 70.7306C63.6959 70.6806 63.6816 70.6321 63.6584 70.5878Z" fill="#3F3D56"/>
</g>
<defs>
<clipPath id="clip0_381_145">
<rect width="118" height="89" fill="white"/>
</clipPath>
</defs>
</svg>
